<?xml version="1.0" standalone="no"?>
<!DOCTYPE svg PUBLIC "-//W3C//DTD SVG 20010904//EN"
 "http://www.w3.org/TR/2001/REC-SVG-20010904/DTD/svg10.dtd">
<svg version="1.0" xmlns="http://www.w3.org/2000/svg"
 width="1423.000000pt" height="678.000000pt" viewBox="0 0 1423.000000 678.000000"
 preserveAspectRatio="xMidYMid meet">

<g transform="translate(0.000000,678.000000) scale(0.100000,-0.100000)"
fill="#000000" stroke="none">
<path d="M7135 6394 c-5 -1 -22 -5 -38 -8 -15 -4 -46 -23 -68 -43 -148 -134
-224 -556 -279 -1553 -5 -102 -21 -432 -35 -735 -52 -1129 -96 -1593 -181
-1890 -46 -160 -103 -253 -142 -229 -65 42 -109 256 -133 644 -8 140 -9 485
-5 1220 9 1263 -2 1553 -69 1853 -41 185 -96 278 -186 317 -62 26 -112 22
-175 -15 -177 -104 -273 -525 -334 -1470 -5 -88 -21 -392 -35 -675 -28 -576
-49 -906 -71 -1119 -8 -79 -13 -146 -10 -148 3 -3 36 -11 75 -17 l70 -12 5 35
c24 154 51 547 81 1166 40 818 63 1159 101 1448 53 415 136 657 225 657 47 0
88 -96 119 -274 50 -294 61 -684 48 -1721 -14 -1065 2 -1479 67 -1752 49 -204
121 -295 235 -295 85 0 162 57 215 162 14 27 25 66 25 87 0 49 35 178 60 221
32 54 66 270 99 637 26 282 45 597 76 1280 38 838 59 1153 96 1455 20 170 57
367 84 455 21 68 66 149 86 153 44 8 105 -245 143 -603 41 -381 61 -795 101
-2080 17 -537 33 -924 41 -972 l5 -33 76 0 76 0 -7 93 c-12 176 -26 556 -46
1207 -35 1163 -63 1626 -120 2022 -38 261 -103 450 -171 499 -30 21 -84 38
-104 33z"/>
<path d="M8204 6011 c-169 -103 -221 -464 -269 -1866 -22 -648 -39 -953 -66
-1240 -11 -117 -36 -322 -45 -367 -5 -25 -2 -27 48 -37 29 -7 62 -14 74 -17
27 -7 28 -3 53 197 41 322 62 660 91 1479 29 815 48 1126 86 1378 26 180 67
308 101 319 17 6 49 -90 72 -214 51 -267 79 -651 121 -1633 46 -1068 82 -1525
145 -1835 40 -193 38 -191 58 -99 9 43 31 106 48 139 l30 60 -16 109 c-41 283
-71 723 -110 1621 -46 1057 -74 1425 -131 1703 -35 170 -84 276 -143 306 -41
22 -109 20 -147 -3z"/>
<path d="M9423 5190 c-196 -42 -281 -427 -338 -1530 -30 -586 -46 -858 -60
-1020 -7 -91 -12 -166 -11 -167 1 -1 142 37 153 42 9 4 34 379 63 960 42 826
81 1199 146 1405 24 77 57 140 73 140 12 0 38 -100 50 -195 24 -182 32 -389
46 -1145 12 -702 25 -1046 40 -1116 4 -19 13 -22 77 -26 40 -3 75 -4 76 -2 2
1 -1 58 -7 126 -16 173 -31 662 -31 993 0 337 -16 853 -30 1025 -26 294 -72
453 -142 491 -36 19 -72 26 -105 19z"/>
<path d="M4672 4957 c-52 -16 -116 -80 -155 -154 -117 -226 -170 -600 -217
-1558 -32 -652 -51 -882 -86 -1051 -17 -84 -42 -154 -54 -154 -14 0 -52 93
-75 185 -39 155 -64 324 -120 835 -91 818 -136 1023 -245 1096 -45 31 -107 32
-144 3 -80 -63 -114 -222 -186 -889 -22 -206 -52 -453 -66 -549 -13 -95 -23
-175 -21 -177 2 -2 35 -6 74 -10 l71 -7 6 29 c23 117 54 356 91 714 41 400 81
665 105 709 5 9 14 -8 28 -50 44 -135 75 -337 132 -874 89 -838 146 -1072 278
-1156 126 -80 220 2 272 238 40 183 59 403 90 1018 23 470 45 788 66 975 40
354 101 578 177 648 l24 23 17 -40 c9 -23 25 -92 35 -153 37 -209 52 -380 91
-1048 30 -512 53 -816 70 -948 6 -40 10 -78 10 -83 0 -6 8 -8 18 -5 9 2 43 7
76 11 l59 7 -7 51 c-16 137 -48 565 -71 962 -64 1102 -106 1341 -251 1401 -38
16 -46 16 -92 1z"/>
<path d="M10195 3820 c-44 -10 -68 -25 -105 -67 -90 -102 -131 -288 -185 -843
-14 -146 -30 -292 -34 -325 -5 -33 -7 -62 -5 -64 5 -5 139 -29 143 -25 8 8 22
117 51 414 36 352 52 474 81 585 20 78 61 165 78 165 12 0 29 -72 41 -176 5
-49 10 -315 10 -594 0 -509 7 -667 35 -775 25 -95 84 -155 152 -155 112 0 174
160 254 654 50 310 85 504 106 576 21 73 24 65 67 -226 34 -227 62 -366 85
-426 10 -27 12 -28 92 -28 73 0 80 2 74 18 -26 58 -56 189 -80 337 -73 467
-79 491 -135 547 -31 31 -45 38 -76 38 -84 0 -134 -66 -179 -231 -14 -52 -52
-257 -85 -456 -60 -360 -86 -491 -113 -568 l-15 -40 -5 35 c-3 19 -9 53 -13
75 -4 22 -8 301 -9 620 -2 621 -9 715 -55 824 -37 86 -102 127 -175 111z"/>
<path d="M2909 3775 c-77 -42 -107 -157 -164 -625 -45 -361 -73 -530 -95 -553
-4 -5 -11 49 -14 120 -22 432 -39 577 -77 662 -47 108 -123 144 -214 102 -50
-23 -92 -69 -183 -203 -94 -137 -159 -203 -239 -240 l-63 -30 -838 -5 c-835
-4 -837 -4 -859 -25 -25 -23 -29 -57 -12 -90 26 -48 24 -48 866 -48 503 0 811
4 853 11 149 24 280 126 409 319 63 93 118 160 132 160 8 0 34 -115 43 -190 3
-25 13 -165 21 -311 15 -274 24 -343 49 -403 15 -35 38 -47 51 -26 9 14 122
71 170 85 39 12 41 14 62 87 28 98 56 269 88 543 27 227 58 425 74 466 8 22
10 19 24 -31 30 -104 46 -264 72 -685 8 -137 18 -267 21 -287 l6 -38 75 0 76
0 -7 78 c-3 42 -13 187 -21 322 -34 549 -65 718 -149 805 -38 40 -47 45 -87
45 -24 -1 -56 -7 -70 -15z"/>
<path d="M11402 3263 c-79 -38 -110 -143 -167 -552 -15 -102 -28 -188 -31
-192 -2 -4 10 -11 28 -14 49 -11 69 -26 88 -67 l17 -38 11 51 c7 28 28 160 47
293 33 224 55 340 70 354 3 3 36 -24 73 -60 121 -119 224 -169 389 -188 131
-15 995 -22 1590 -13 504 8 523 9 542 28 34 34 37 77 8 111 l-25 29 -509 -5
c-662 -7 -1372 -2 -1543 9 -191 13 -233 32 -386 175 -107 99 -138 111 -202 79z"/>
<path d="M2977 2430 c-240 -28 -395 -116 -464 -265 -28 -60 -28 -61 -28 -265
0 -234 10 -278 77 -355 54 -61 124 -93 418 -190 146 -48 280 -97 299 -108 48
-29 61 -69 61 -189 -1 -156 -32 -207 -149 -238 -62 -16 -357 -13 -544 6 -87 9
-161 13 -165 10 -7 -7 -8 -273 -1 -281 13 -12 265 -37 434 -42 363 -11 554 37
672 171 23 27 53 73 65 105 21 52 23 71 23 276 0 204 -2 224 -23 275 -26 67
-86 128 -160 165 -29 15 -165 64 -301 110 -374 126 -364 118 -369 274 -4 125
8 165 59 203 63 47 99 53 314 52 131 0 244 -7 329 -18 81 -11 132 -14 138 -8
10 10 13 219 4 250 -7 21 -12 22 -181 47 -125 19 -405 27 -508 15z"/>
<path d="M5020 2430 c-102 -13 -243 -55 -305 -90 -102 -59 -181 -166 -205
-277 -7 -32 -10 -244 -8 -618 l3 -570 23 -55 c84 -199 274 -294 617 -307 225
-9 396 17 530 81 132 63 210 161 240 303 21 98 21 1057 1 1154 -41 192 -176
311 -409 360 -108 23 -372 33 -487 19z m392 -307 c73 -20 131 -68 155 -131 17
-43 18 -86 18 -522 l0 -475 -25 -50 c-53 -106 -158 -142 -391 -133 -190 8
-256 36 -304 132 l-25 50 0 476 c0 330 4 487 11 511 31 92 111 144 246 159 99
11 241 3 315 -17z"/>
<path d="M7239 2429 c-226 -24 -392 -113 -453 -243 -38 -80 -49 -169 -43 -340
5 -162 16 -210 65 -280 50 -73 121 -108 419 -206 304 -100 322 -108 352 -146
19 -24 21 -40 21 -154 0 -115 -2 -130 -23 -160 -25 -39 -71 -68 -125 -81 -60
-14 -378 -10 -543 7 -126 13 -153 13 -161 2 -9 -13 -7 -262 2 -272 23 -23 400
-50 595 -43 342 13 508 98 574 294 18 55 21 86 21 257 0 238 -14 301 -85 371
-60 60 -87 72 -392 176 -147 50 -288 102 -311 116 -58 33 -72 69 -72 181 0
152 47 208 195 233 89 15 345 7 518 -16 70 -10 130 -15 133 -12 10 10 15 182
7 227 l-9 45 -89 17 c-178 34 -428 45 -596 27z"/>
<path d="M9298 2429 c-166 -17 -313 -72 -399 -148 -25 -22 -60 -66 -77 -99
-61 -115 -62 -123 -62 -704 0 -349 4 -545 11 -580 16 -76 53 -149 104 -206
166 -185 603 -234 1065 -121 l90 22 0 66 c-1 65 -21 196 -33 207 -3 3 -66 -6
-139 -21 -98 -21 -173 -29 -285 -33 -267 -8 -385 30 -446 143 -21 39 -22 51
-25 495 -2 310 1 469 8 500 24 96 94 155 215 181 82 18 398 15 545 -5 63 -9
118 -12 123 -7 4 4 8 64 8 132 0 102 -3 126 -16 135 -52 38 -481 65 -687 43z"/>
<path d="M10918 2403 l-28 -4 0 -928 0 -928 81 -6 c45 -4 122 -4 170 0 l89 6
0 927 0 927 -37 7 c-41 6 -230 6 -275 -1z"/>
</g>
</svg>
